<?xml version="1.0"?>
<svg version="1.1" xmlns="http://www.w3.org/2000/svg" width="400" height="200" style="border: dashed 2px #aaa"><path fill="#2eacb0" d="M15.8935546875,94.931640625q0-0.6884765625,0.16845703125-1.00341796875t0.4833984375-0.439453125t0.76171875-0.09521484375t1.04736328125,0.029296875q1.5234375,0,3.076171875,0.46875t2.7978515625,1.36962890625t2.0068359375,2.21923828125t0.76171875,3.0322265625q0,1.142578125-0.32958984375,2.16064453125t-0.93017578125,1.904296875t-1.40625,1.61865234375t-1.7724609375,1.2744140625q0.3955078125,0.3955078125,1.025390625,1.39892578125t1.2451171875,2.138671875t1.09130859375,2.20458984375t0.56396484375,1.611328125l-0.17578125,0.263671875q-0.3955078125,0.234375-0.9521484375,0.2490234375q-0.263671875,0-0.6884765625-0.06591796875t-0.5419921875-0.38818359375q-0.6005859375-1.6845703125-1.31103515625-3.4716796875t-1.75048828125-3.22265625l0-0.029296875q-0.3662109375,0.146484375-0.72509765625,0.28564453125t-0.72509765625,0.25634765625q0.1171875,1.6259765625,0.24169921875,3.20068359375t0.12451171875,3.18603515625q0,0.205078125-0.19775390625,0.32958984375t-0.44677734375,0.19775390625t-0.50537109375,0.1025390625t-0.41748046875,0.029296875q-0.146484375,0-0.41748046875-0.029296875t-0.52001953125-0.1025390625t-0.43212890625-0.21240234375t-0.18310546875-0.37353515625q0-1.6259765625-0.0732421875-3.24462890625t-0.1611328125-3.22998046875q-0.4541015625-0.29296875-0.4541015625-0.76171875q0-0.3662109375,0.3515625-0.498046875q-0.17578125-3.0908203125-0.40283203125-6.1669921875t-0.22705078125-6.1962890625z M18.544921875,94.4775390625q0.205078125,3.1787109375,0.46142578125,6.2841796875t0.49072265625,6.2841796875q1.025390625-0.29296875,1.91162109375-1.01806640625t1.53076171875-1.63330078125t1.00341796875-1.9775390625t0.35888671875-2.1240234375q0-1.171875-0.46875-2.24853515625t-1.2451171875-1.88232421875q-0.791015625-0.8056640625-1.81640625-1.259765625q-0.908203125-0.3955078125-1.904296875-0.3955078125l-0.263671875,0z M29.995166015625,110.13671875q0-1.025390625,0.22705078125-2.4169921875t0.76904296875-2.63671875t1.42822265625-2.11669921875t2.23388671875-0.87158203125q1.259765625,0,1.8896484375,0.72509765625t0.6298828125,1.95556640625q0,0.8056640625-0.30029296875,1.76513671875t-0.85693359375,1.81640625t-1.318359375,1.42822265625t-1.69921875,0.5712890625l-0.380859375-0.029296875q0,0.3955078125,0.1171875,1.06201171875t0.34423828125,1.32568359375t0.5859375,1.1572265625t0.87158203125,0.498046875q0.7470703125,0,1.435546875-0.6005859375t1.3037109375-1.3330078125t1.142578125-1.3330078125t0.966796875-0.6005859375q0.234375,0,0.4833984375,0.0732421875t0.2783203125,0.41015625q0,0.205078125-0.10986328125,0.3369140625t-0.19775390625,0.29296875q-0.4541015625,0.7763671875-0.98876953125,1.4794921875t-1.20849609375,1.2744140625t-1.47216796875,0.90087890625t-1.76513671875,0.32958984375q-1.259765625,0-2.0947265625-0.44677734375t-1.34765625-1.201171875t-0.73974609375-1.7431640625t-0.22705078125-2.07275390625z M32.617236328125,109.0234375l0.41015625,0.3662109375q0.29296875,0.263671875,0.5859375,0.1171875t0.52734375-0.53466796875t0.43212890625-0.95947265625t0.3515625-1.171875t0.22705078125-1.171875t0.0732421875-0.9521484375l0-0.498046875t-0.0439453125-0.52734375t-0.15380859375-0.41748046875t-0.34423828125-0.21240234375q-0.0732421875-0.0146484375-0.1318359375-0.0146484375q-0.498046875,0-0.849609375,0.6298828125q-0.380859375,0.703125-0.615234375,1.70654296875t-0.3369140625,2.05810546875t-0.1318359375,1.58203125z M42.23642578125,109.5361328125q0-0.99609375,0.27099609375-1.9189453125t0.81298828125-1.64794921875t1.35498046875-1.1572265625t1.88232421875-0.43212890625q0.6591796875,0,1.45751953125,0.19775390625t1.50146484375,0.5859375t1.171875,0.98876953125t0.46875,1.376953125q0,0.3662109375-0.12451171875,0.556640625t-0.50537109375,0.1904296875l-0.1611328125-0.029296875q0.4248046875,1.142578125,0.732421875,2.34375t0.6005859375,2.40234375q0.1171875,0.234375,0.17578125,0.41748046875t0.05859375,0.35888671875q0,0.234375-0.1318359375,0.38818359375t-0.34423828125,0.22705078125t-0.439453125,0.1025390625t-0.40283203125,0.029296875q-0.6298828125,0-0.94482421875-0.2197265625t-0.4541015625-0.6005859375t-0.16845703125-0.85693359375t-0.1171875-0.95947265625q-0.17578125,0.5712890625-0.46142578125,1.11328125t-0.673828125,0.97412109375t-0.91552734375,0.6884765625t-1.1865234375,0.25634765625q-0.966796875,0-1.6259765625-0.556640625t-1.06201171875-1.36962890625t-0.5859375-1.73583984375t-0.18310546875-1.7138671875z M44.31650390625,109.3310546875q0,0.5419921875,0.0732421875,1.142578125t0.24169921875,1.1865234375t0.43212890625,1.10595703125t0.6591796875,0.91552734375q0.7177734375-0.7763671875,1.06201171875-1.8896484375t0.615234375-2.14599609375t0.615234375-1.7724609375t1.06201171875-0.73974609375q0.4541015625,0,0.76171875,0.1611328125q-0.146484375-0.3662109375-0.4833984375-0.71044921875t-0.75439453125-0.6298828125t-0.8642578125-0.46875t-0.84228515625-0.18310546875q-0.1171875,0-0.27099609375,0.03662109375t-0.24169921875,0.00732421875q-0.6005859375,0.17578125-0.98876953125,0.60791015625t-0.6298828125,1.01806640625t-0.34423828125,1.201171875t-0.1025390625,1.1572265625z M54.931787109375,109.2431640625q0-1.0546875,0.27099609375-2.11669921875t0.84228515625-1.904296875t1.45751953125-1.36962890625t2.08740234375-0.52734375q0.5126953125,0,1.1279296875,0.12451171875t1.13525390625,0.3955078125t0.87890625,0.703125t0.35888671875,1.06201171875q0,0.3955078125-0.205078125,0.52734375t-0.5419921875,0.1318359375l-0.1025390625-0.146484375t-0.28564453125-0.37353515625t-0.38818359375-0.4833984375t-0.3955078125-0.43212890625q-0.6005859375-0.6005859375-1.1279296875-0.64453125l-0.1171875,0q-0.439453125,0-0.8203125,0.263671875q-0.4248046875,0.322265625-0.75439453125,0.908203125t-0.54931640625,1.2451171875t-0.34423828125,1.3330078125t-0.12451171875,1.11328125q0,0.6005859375,0.13916015625,1.36962890625t0.46875,1.45751953125t0.8349609375,1.1572265625t1.29638671875,0.46875q0.7177734375,0,1.3037109375-0.3515625t1.12060546875-0.78369140625t1.04736328125-0.7763671875t1.0546875-0.34423828125q0.234375,0,0.47607421875,0.05859375t0.24169921875,0.3076171875l0,0.087890625q-0.263671875,0.6884765625-0.8935546875,1.2158203125t-1.41357421875,0.91552734375t-1.6259765625,0.57861328125t-1.50146484375,0.1904296875q-1.23046875,0-2.16064453125-0.40283203125t-1.54541015625-1.10595703125t-0.93017578125-1.69189453125t-0.31494140625-2.16064453125z M67.114453125,100.234375q0-0.205078125,0.439453125-0.3515625t0.99609375-0.24169921875t1.07666015625-0.13916015625t0.71044921875-0.0732421875q0-0.3955078125,0.029296875-0.79833984375t0.1611328125-0.7177734375t0.41748046875-0.50537109375t0.79833984375-0.1904296875q0.4248046875,0,0.64453125,0.1025390625t0.46875,0.4248046875q0.05859375,0.17578125,0.05859375,0.3369140625l0,0.49072265625t-0.029296875,0.50537109375q0.5419921875-0.05859375,1.07666015625-0.13916015625t1.07666015625-0.08056640625q0.3955078125,0,0.5419921875,0.0146484375t0.29296875,0.3515625q0.1171875,0.3369140625-0.28564453125,0.5126953125t-0.966796875,0.263671875t-1.12060546875,0.1318359375t-0.673828125,0.0439453125q-0.17578125,2.51953125-0.35888671875,4.9951171875t-0.18310546875,5.0244140625q0,1.142578125,0.0732421875,2.3583984375t0.41015625,2.2998046875q0.087890625,0.3369140625,0.29296875,0.6298828125t0.205078125,0.6298828125q0,0.205078125-0.1611328125,0.322265625t-0.38818359375,0.19775390625t-0.4541015625,0.09521484375t-0.37353515625,0.0146484375q-0.9228515625,0-1.40625-0.6884765625t-0.69580078125-1.64794921875t-0.22705078125-1.97021484375t-0.0146484375-1.640625q0-1.2890625,0.05126953125-2.63671875t0.12451171875-2.666015625t0.205078125-2.578125t0.3076171875-2.34375q-0.5126953125,0.05859375-1.00341796875,0.1318359375t-1.00341796875,0.0732421875q-0.1171875,0-0.31494140625-0.0146484375t-0.37353515625-0.0732421875t-0.30029296875-0.1611328125t-0.12451171875-0.29296875z M78.344970703125,112.5390625q0.087890625-2.373046875,0.15380859375-4.86328125t0.12451171875-4.91455078125t0.087890625-4.70947265625t0.029296875-4.2626953125q0.029296875-0.3955078125,0.6884765625-0.6298828125t1.57470703125-0.34423828125t1.93359375-0.13916015625t1.80908203125-0.029296875q0.17578125,0,0.732421875-0.0146484375l0.2783203125,0q0.4248046875,0,0.8935546875,0.029296875q0.615234375,0.0439453125,1.07666015625,0.1904296875t0.46142578125,0.4248046875q0,0.205078125-0.1611328125,0.32958984375t-0.37353515625,0.18310546875t-0.439453125,0.0732421875t-0.31494140625,0.0146484375q-1.376953125,0-2.724609375-0.0439453125q-0.3662109375-0.0146484375-0.7470703125-0.0146484375q-0.99609375,0-2.021484375,0.087890625q0.05859375,0.17578125,0.09521484375,1.06201171875t0.03662109375,1.99951171875t-0.0146484375,2.17529296875t0,1.63330078125l0,3.80859375q0.4541015625-0.029296875,0.8935546875-0.029296875l0.87890625,0l0.5859375-0.029296875q0.29296875-0.0146484375,0.615234375-0.0146484375q0.3369140625,0,0.6884765625,0.0146484375q0.703125,0.029296875,1.28173828125,0.16845703125t0.57861328125,0.49072265625q0,0.263671875-0.2197265625,0.38818359375t-0.49072265625,0.18310546875t-0.5126953125,0.05859375l-0.27099609375,0q-0.8349609375,0-1.73583984375-0.05859375t-1.67724609375-0.05859375q-0.146484375,0.05859375-0.31494140625,0.0439453125t-0.30029296875-0.0146484375q0,2.197265625-0.0439453125,4.37255859375t-0.1025390625,4.32861328125q0,0.4248046875-0.53466796875,0.556640625t-1.01806640625,0.1318359375q-0.5419921875,0-0.85693359375-0.1318359375t-0.44677734375-0.43212890625t-0.1611328125-0.79833984375q-0.0146484375-0.2783203125-0.029296875-0.615234375q0-0.2783203125,0.0146484375-0.6005859375z M90.29326171875,109.5361328125q0-0.99609375,0.27099609375-1.9189453125t0.81298828125-1.64794921875t1.35498046875-1.1572265625t1.88232421875-0.43212890625q0.6591796875,0,1.45751953125,0.19775390625t1.50146484375,0.5859375t1.171875,0.98876953125t0.46875,1.376953125q0,0.3662109375-0.12451171875,0.556640625t-0.50537109375,0.1904296875l-0.1611328125-0.029296875q0.4248046875,1.142578125,0.732421875,2.34375t0.6005859375,2.40234375q0.1171875,0.234375,0.17578125,0.41748046875t0.05859375,0.35888671875q0,0.234375-0.1318359375,0.38818359375t-0.34423828125,0.22705078125t-0.439453125,0.1025390625t-0.40283203125,0.029296875q-0.6298828125,0-0.94482421875-0.2197265625t-0.4541015625-0.6005859375t-0.16845703125-0.85693359375t-0.1171875-0.95947265625q-0.17578125,0.5712890625-0.46142578125,1.11328125t-0.673828125,0.97412109375t-0.91552734375,0.6884765625t-1.1865234375,0.25634765625q-0.966796875,0-1.6259765625-0.556640625t-1.06201171875-1.36962890625t-0.5859375-1.73583984375t-0.18310546875-1.7138671875z M92.37333984375,109.3310546875q0,0.5419921875,0.0732421875,1.142578125t0.24169921875,1.1865234375t0.43212890625,1.10595703125t0.6591796875,0.91552734375q0.7177734375-0.7763671875,1.06201171875-1.8896484375t0.615234375-2.14599609375t0.615234375-1.7724609375t1.06201171875-0.73974609375q0.4541015625,0,0.76171875,0.1611328125q-0.146484375-0.3662109375-0.4833984375-0.71044921875t-0.75439453125-0.6298828125t-0.8642578125-0.46875t-0.84228515625-0.18310546875q-0.1171875,0-0.27099609375,0.03662109375t-0.24169921875,0.00732421875q-0.6005859375,0.17578125-0.98876953125,0.60791015625t-0.6298828125,1.01806640625t-0.34423828125,1.201171875t-0.1025390625,1.1572265625z M102.98862304688,109.2431640625q0-1.0546875,0.27099609375-2.11669921875t0.84228515625-1.904296875t1.45751953125-1.36962890625t2.08740234375-0.52734375q0.5126953125,0,1.1279296875,0.12451171875t1.13525390625,0.3955078125t0.87890625,0.703125t0.35888671875,1.06201171875q0,0.3955078125-0.205078125,0.52734375t-0.5419921875,0.1318359375l-0.1025390625-0.146484375t-0.28564453125-0.37353515625t-0.38818359375-0.4833984375t-0.3955078125-0.43212890625q-0.6005859375-0.6005859375-1.1279296875-0.64453125l-0.1171875,0q-0.439453125,0-0.8203125,0.263671875q-0.4248046875,0.322265625-0.75439453125,0.908203125t-0.54931640625,1.2451171875t-0.34423828125,1.3330078125t-0.12451171875,1.11328125q0,0.6005859375,0.13916015625,1.36962890625t0.46875,1.45751953125t0.8349609375,1.1572265625t1.29638671875,0.46875q0.7177734375,0,1.3037109375-0.3515625t1.12060546875-0.78369140625t1.04736328125-0.7763671875t1.0546875-0.34423828125q0.234375,0,0.47607421875,0.05859375t0.24169921875,0.3076171875l0,0.087890625q-0.263671875,0.6884765625-0.8935546875,1.2158203125t-1.41357421875,0.91552734375t-1.6259765625,0.57861328125t-1.50146484375,0.1904296875q-1.23046875,0-2.16064453125-0.40283203125t-1.54541015625-1.10595703125t-0.93017578125-1.69189453125t-0.31494140625-2.16064453125z M115.1712890625,100.234375q0-0.205078125,0.439453125-0.3515625t0.99609375-0.24169921875t1.07666015625-0.13916015625t0.71044921875-0.0732421875q0-0.3955078125,0.029296875-0.79833984375t0.1611328125-0.7177734375t0.41748046875-0.50537109375t0.79833984375-0.1904296875q0.4248046875,0,0.64453125,0.1025390625t0.46875,0.4248046875q0.05859375,0.17578125,0.05859375,0.3369140625l0,0.49072265625t-0.029296875,0.50537109375q0.5419921875-0.05859375,1.07666015625-0.13916015625t1.07666015625-0.08056640625q0.3955078125,0,0.5419921875,0.0146484375t0.29296875,0.3515625q0.1171875,0.3369140625-0.28564453125,0.5126953125t-0.966796875,0.263671875t-1.12060546875,0.1318359375t-0.673828125,0.0439453125q-0.17578125,2.51953125-0.35888671875,4.9951171875t-0.18310546875,5.0244140625q0,1.142578125,0.0732421875,2.3583984375t0.41015625,2.2998046875q0.087890625,0.3369140625,0.29296875,0.6298828125t0.205078125,0.6298828125q0,0.205078125-0.1611328125,0.322265625t-0.38818359375,0.19775390625t-0.4541015625,0.09521484375t-0.37353515625,0.0146484375q-0.9228515625,0-1.40625-0.6884765625t-0.69580078125-1.64794921875t-0.22705078125-1.97021484375t-0.0146484375-1.640625q0-1.2890625,0.05126953125-2.63671875t0.12451171875-2.666015625t0.205078125-2.578125t0.3076171875-2.34375q-0.5126953125,0.05859375-1.00341796875,0.1318359375t-1.00341796875,0.0732421875q-0.1171875,0-0.31494140625-0.0146484375t-0.37353515625-0.0732421875t-0.30029296875-0.1611328125t-0.12451171875-0.29296875z M126.37250976563,105.7568359375q0-0.6005859375,0.3515625-1.03271484375t0.85693359375-0.703125t1.10595703125-0.40283203125t1.11328125-0.1318359375q0.3955078125,0,1.0546875,0.1171875t1.2890625,0.3515625t1.09130859375,0.615234375t0.46142578125,0.8935546875q0,0.234375-0.17578125,0.41748046875t-0.3662109375,0.18310546875q-0.3955078125,0-0.7177734375-0.25634765625t-0.66650390625-0.5419921875t-0.75439453125-0.5419921875t-0.9228515625-0.25634765625t-0.93017578125,0.32958984375t-0.41748046875,0.87158203125q0,0.8935546875,0.6298828125,1.75048828125t1.38427734375,1.8017578125t1.38427734375,1.98486328125t0.6298828125,2.2998046875q0,0.5419921875-0.22705078125,0.91552734375t-0.6005859375,0.60791015625t-0.84228515625,0.35888671875t-0.908203125,0.12451171875q-0.4833984375,0-1.1279296875-0.22705078125t-1.2158203125-0.6005859375t-0.95947265625-0.87158203125t-0.38818359375-1.0400390625q0-0.263671875,0.37353515625-0.3369140625t0.54931640625-0.0732421875q0.087890625,0,0.27099609375,0.05859375t0.35888671875,0.1318359375t0.31494140625,0.1611328125t0.10986328125,0.1904296875q0.146484375,0.17578125,0.44677734375,0.52001953125t0.6005859375,0.556640625t0.52734375,0.15380859375t0.22705078125-0.6591796875q0-1.142578125-0.615234375-2.10205078125t-1.34033203125-1.875t-1.34033203125-1.81640625t-0.615234375-1.92626953125z"/><path fill="#" d=""/></svg>
